<svg width="17" height="24" viewBox="0 0 17 24" fill="none" xmlns="http://www.w3.org/2000/svg">
<path fill-rule="evenodd" clip-rule="evenodd" d="M15.3762 16.9013L13.866 18.5012L14.9666 20.1754C14.8858 20.8049 14.8161 21.3684 14.7576 21.8413C14.5347 23.6309 13.4871 24.2082 11.2524 23.936C9.34652 23.7051 4.38402 23.0618 2.56731 22.8364C0.516552 22.589 -0.177251 21.5086 0.0372985 19.785C0.0902394 19.3506 0.154325 18.8558 0.223984 18.3088L1.61716 17.0167L0.608502 15.2134C1.29116 9.93247 2.16608 3.1781 2.25245 2.4661C2.48651 0.594014 3.34192 -0.167469 4.96637 0.0304613C6.12549 0.170662 13.2251 0.976128 14.7186 1.15756C16.6468 1.39123 17.1846 2.51833 16.9477 4.36018C16.8697 4.97322 16.0366 11.6231 15.3762 16.9013ZM11.5255 19.2434C12.7988 19.3974 13.0496 17.4456 11.7456 17.2861C10.4416 17.1267 10.1295 19.073 11.5255 19.2434ZM7.7388 18.7788C9.01216 18.9328 9.26293 16.981 7.95892 16.8215C6.6549 16.6621 6.34283 18.6112 7.7388 18.7788ZM4.01065 18.3335C5.28401 18.4874 5.53478 16.5329 4.23077 16.3762C2.92675 16.2195 2.61468 18.1631 4.01065 18.3335Z" fill="#D9D9D9"/>
</svg>
